<svg width="83" height="63" viewBox="0 0 83 63" fill="none" xmlns="http://www.w3.org/2000/svg">
<path d="M57.5 62.5L51.75 53.75C60.4167 47.75 65.5833 40.1667 67.25 31C65.75 31.6667 64 32 62 32C57.3333 32 53.5 30.5 50.5 27.5C47.5 24.5 46 20.6667 46 16C46 11.1667 47.5833 7.33333 50.75 4.49999C53.9167 1.49999 57.9167 -8.46386e-06 62.75 -8.46386e-06C68.5833 -8.46386e-06 73.3333 1.91666 77 5.74999C80.8333 9.58333 82.75 15.0833 82.75 22.25C82.75 29.9167 80.5 37.5 76 45C71.6667 52.3333 65.5 58.1667 57.5 62.5ZM11.5 62.5L5.75 53.75C14.4167 47.75 19.5833 40.1667 21.25 31C19.75 31.6667 18 32 16 32C11.3333 32 7.5 30.5 4.5 27.5C1.5 24.5 7.07805e-07 20.6667 7.07805e-07 16C7.07805e-07 11.1667 1.58333 7.33333 4.75 4.49999C7.91667 1.49999 11.9167 -8.46386e-06 16.75 -8.46386e-06C22.5833 -8.46386e-06 27.3333 1.91666 31 5.74999C34.8333 9.58333 36.75 15.0833 36.75 22.25C36.75 29.9167 34.5 37.5 30 45C25.6667 52.3333 19.5 58.1667 11.5 62.5Z" fill="#FBEA92"/>
</svg>
